<svg id="Layer_1" data-name="Layer 1" xmlns="http://www.w3.org/2000/svg" viewBox="0 0 297.79 205.83"><defs><style>.cls-1{fill:#f1f2f2;}.cls-2{fill:#bcbec0;}.cls-3{fill:#62c3a6;}.cls-4{fill:#6b5ea9;}.cls-5{fill:#faaa43;}.cls-6{fill:#44a9df;}.cls-7{fill:#808285;}</style></defs><title>coding-vector-light</title><rect class="cls-1" width="297.79" height="205.83" rx="7.2" ry="7.2"/><path class="cls-2" d="M7.21,0H86.12a0,0,0,0,1,0,0v205.8a0,0,0,0,1,0,0H7.21a7.2,7.2,0,0,1-7.2-7.2V7.21A7.2,7.2,0,0,1,7.21,0Z"/><rect class="cls-3" x="99.25" y="18.24" width="88.34" height="8.76" rx="3.6" ry="3.6"/><rect class="cls-3" x="108.29" y="36.29" width="88.34" height="8.76" rx="3.6" ry="3.6"/><rect class="cls-4" x="108.29" y="55.13" width="100.24" height="8.76" rx="3.83" ry="3.83"/><rect class="cls-4" x="108.29" y="75.42" width="67.53" height="8.76" rx="3.15" ry="3.15"/><rect class="cls-5" x="108.29" y="94.15" width="54.1" height="8.76" rx="2.82" ry="2.82"/><rect class="cls-6" x="99.25" y="122.13" width="88.34" height="8.76" rx="3.6" ry="3.6"/><rect class="cls-3" x="97.89" y="142.57" width="98.53" height="8.76" rx="3.8" ry="3.8"/><rect class="cls-5" x="97.89" y="160.82" width="133.26" height="8.76" rx="4.38" ry="4.38"/><rect class="cls-6" x="197.94" y="18.24" width="36.5" height="8.76" rx="3.6" ry="3.6"/><rect class="cls-4" x="207.55" y="36.69" width="36.5" height="8.76" rx="3.6" ry="3.6"/><rect class="cls-5" x="218.85" y="55.13" width="24.59" height="8.76" rx="2.95" ry="2.95"/><rect class="cls-5" x="186.59" y="75.42" width="24.59" height="8.76" rx="2.95" ry="2.95"/><rect class="cls-4" x="196.89" y="122.13" width="35.55" height="8.76" rx="3.55" ry="3.55"/><rect class="cls-4" x="206.41" y="142.57" width="35.55" height="8.76" rx="3.55" ry="3.55"/><rect class="cls-7" x="11.78" y="14.86" width="56.69" height="8.76" rx="4.22" ry="4.22"/><rect class="cls-7" x="23.19" y="31.9" width="44.28" height="8.76" rx="3.73" ry="3.73"/><rect class="cls-7" x="23.19" y="50.75" width="44.28" height="8.76" rx="3.73" ry="3.73"/><rect class="cls-7" x="10.78" y="73.35" width="56.69" height="8.76" rx="4.22" ry="4.22"/><rect class="cls-7" x="22.19" y="90.39" width="44.28" height="8.76" rx="3.73" ry="3.73"/><rect class="cls-7" x="22.19" y="109.24" width="44.28" height="8.76" rx="3.73" ry="3.73"/><rect class="cls-7" x="22.19" y="128.77" width="44.28" height="8.76" rx="3.73" ry="3.73"/><rect class="cls-7" x="22.19" y="147.61" width="44.28" height="8.76" rx="3.73" ry="3.73"/></svg>